
 
http://www.imdb.com/title/tt0790724/

Plot:A homicide investigator digs deeper into a case involving a trained military sniper who shot five random victims.

Director: 
Christopher McQuarrie

 Writers: 
Christopher McQuarrie (screenplay), Lee Child (book)
 
Stars:
 Tom Cruise, Rosamund Pike and Richard Jenkins

Genres:
 Action | Crime | Thriller 
 



Format                                   : AVI
 Format/Info                              : Audio Video Interleave
 File size                                : 1.37 GiB
 Duration                                 : 2h 10mn
 Overall bit rate                         : 1 500 Kbps
 Writing application                      : VirtualDubMod 1.5.10.2 (build 2540/release)
 Writing library                          : VirtualDubMod build 2540/release

 Video
 ID                                       : 0
 Format                                   : MPEG-4 Visual
 Format profile                           : Advanced Simple@L5
 Format settings, BVOP                    : 2
 Format settings, QPel                    : No
 Format settings, GMC                     : No warppoints
 Format settings, Matrix                  : Default (H.263)
 Muxing mode                              : Packed bitstream
 Codec ID                                 : XVID
 Codec ID/Hint                            : XviD
 Duration                                 : 2h 10mn
 Bit rate                                 : 1 106 Kbps
 Width                                    : 720 pixels
 Height                                   : 304 pixels
 Display aspect ratio                     : 2.35:1
 Frame rate                               : 23.976 fps
 Color space                              : YUV
 Chroma subsampling                       : 4:2:0
 Bit depth                                : 8 bits
 Scan type                                : Progressive
 Compression mode                         : Lossy
 Bits/(Pixel*Frame)                       : 0.211
 Stream size                              : 1.01 GiB (74%)
 Writing library                          : XviD 64

 Audio
 ID                                       : 1
 Format                                   : AC-3
 Format/Info                              : Audio Coding 3
 Mode extension                           : CM (complete main)
 Format settings, Endianness              : Big
 Codec ID                                 : 2000
 Duration                                 : 2h 10mn
 Bit rate mode                            : Constant
 Bit rate                                 : 384 Kbps
 Channel(s)                               : 6 channels
 Channel positions                        : Front: L C R, Side: L R, LFE
 Sampling rate                            : 48.0 KHz
 Bit depth                                : 16 bits
 Compression mode                         : Lossy
 Stream size                              : 358 MiB (26%)
 Alignment                                : Split accross interleaves
 Interleave, duration                     : 42 ms (1.00 video frame)
 Interleave, preload duration             : 500 ms


 Source Used 

 Jack Reacher 2012 720p BluRay X264-AMIABLE /Thanks


 
http://www.shotpix.com/images/59308681022008283245.png 
http://www.shotpix.com/images/38801108418281145018.png 
http://www.shotpix.com/images/34192071353762628677.png